<?xml version="1.0" encoding="UTF-8" standalone="no"?><svg xmlns="http://www.w3.org/2000/svg" xmlns:xlink="http://www.w3.org/1999/xlink" contentScriptType="application/ecmascript" contentStyleType="text/css" height="803px" preserveAspectRatio="none" style="width:1215px;height:803px;" version="1.1" viewBox="0 0 1215 803" width="1215px" zoomAndPan="magnify"><defs><filter height="300%" id="f1u1cmn6xk6k25" width="300%" x="-1" y="-1"><feGaussianBlur result="blurOut" stdDeviation="2.0"/><feColorMatrix in="blurOut" result="blurOut2" type="matrix" values="0 0 0 0 0 0 0 0 0 0 0 0 0 0 0 0 0 0 .4 0"/><feOffset dx="4.0" dy="4.0" in="blurOut2" result="blurOut3"/><feBlend in="SourceGraphic" in2="blurOut3" mode="normal"/></filter></defs><g><!--MD5=[faad0f0e7f13faf098622c4536db09e2]
cluster source--><polygon fill="#FFFFFF" filter="url(#f1u1cmn6xk6k25)" points="22,24,83,24,90,46.2969,1193,46.2969,1193,791,22,791,22,24" style="stroke: #000000; stroke-width: 1.5;"/><line style="stroke: #000000; stroke-width: 1.5;" x1="22" x2="90" y1="46.2969" y2="46.2969"/><text fill="#000000" font-family="sans-serif" font-size="14" font-weight="bold" lengthAdjust="spacingAndGlyphs" textLength="55" x="26" y="38.9951">source</text><!--MD5=[66eab4335fc82c406d9a83370beb6ef5]
class source.CPreProcessor--><rect fill="#FEFECE" filter="url(#f1u1cmn6xk6k25)" height="79.5469" id="source.CPreProcessor" style="stroke: #A80036; stroke-width: 1.5;" width="164" x="264" y="555"/><ellipse cx="279" cy="573.9688" fill="#ADD1B2" rx="11" ry="11" style="stroke: #A80036; stroke-width: 1.0;"/><path d="M281.9688,579.6094 Q281.3906,579.9063 280.75,580.0469 Q280.1094,580.2031 279.4063,580.2031 Q276.9063,580.2031 275.5781,578.5625 Q274.2656,576.9063 274.2656,573.7813 Q274.2656,570.6563 275.5781,569 Q276.9063,567.3438 279.4063,567.3438 Q280.1094,567.3438 280.75,567.5 Q281.4063,567.6563 281.9688,567.9531 L281.9688,570.6719 Q281.3438,570.0938 280.75,569.8281 Q280.1563,569.5469 279.5313,569.5469 Q278.1875,569.5469 277.5,570.625 Q276.8125,571.6875 276.8125,573.7813 Q276.8125,575.875 277.5,576.9531 Q278.1875,578.0156 279.5313,578.0156 Q280.1563,578.0156 280.75,577.75 Q281.3438,577.4688 281.9688,576.8906 L281.9688,579.6094 Z "/><text fill="#000000" font-family="sans-serif" font-size="12" font-style="italic" lengthAdjust="spacingAndGlyphs" textLength="136" x="291" y="571.1387">«concrete-decorator»</text><text fill="#000000" font-family="sans-serif" font-size="12" lengthAdjust="spacingAndGlyphs" textLength="92" x="313" y="585.1074">CPreProcessor</text><line style="stroke: #A80036; stroke-width: 1.5;" x1="265" x2="427" y1="592.9375" y2="592.9375"/><line style="stroke: #A80036; stroke-width: 1.5;" x1="265" x2="427" y1="600.9375" y2="600.9375"/><ellipse cx="275" cy="611.9375" fill="#84BE84" rx="3" ry="3" style="stroke: #038048; stroke-width: 1.0;"/><text fill="#000000" font-family="sans-serif" font-size="11" lengthAdjust="spacingAndGlyphs" text-decoration="underline" textLength="106" x="284" y="615.1479">get_name(): String</text><ellipse cx="275" cy="624.7422" fill="#84BE84" rx="3" ry="3" style="stroke: #038048; stroke-width: 1.0;"/><text fill="#000000" font-family="sans-serif" font-size="11" lengthAdjust="spacingAndGlyphs" textLength="95" x="284" y="627.9526">get_text(): String</text><!--MD5=[94fe4c4e633e50b08aa729d0ade4defd]
class source.TextProcessor--><rect fill="#FEFECE" filter="url(#f1u1cmn6xk6k25)" height="92.3516" id="source.TextProcessor" style="stroke: #A80036; stroke-width: 1.5;" width="236" x="228" y="403"/><ellipse cx="298.25" cy="421.9688" fill="#A9DCDF" rx="11" ry="11" style="stroke: #A80036; stroke-width: 1.0;"/><path d="M298.3594,417.3125 L297.2031,422.3906 L299.5313,422.3906 L298.3594,417.3125 Z M296.875,415.0781 L299.8594,415.0781 L303.2188,427.4688 L300.7656,427.4688 L300,424.4063 L296.7188,424.4063 L295.9688,427.4688 L293.5313,427.4688 L296.875,415.0781 Z "/><text fill="#000000" font-family="sans-serif" font-size="12" font-style="italic" lengthAdjust="spacingAndGlyphs" textLength="76" x="324.25" y="419.1387">«decorator»</text><text fill="#000000" font-family="sans-serif" font-size="12" font-style="italic" lengthAdjust="spacingAndGlyphs" textLength="87" x="318.75" y="433.1074">TextProcessor</text><line style="stroke: #A80036; stroke-width: 1.5;" x1="229" x2="463" y1="440.9375" y2="440.9375"/><line style="stroke: #A80036; stroke-width: 1.5;" x1="229" x2="463" y1="448.9375" y2="448.9375"/><ellipse cx="239" cy="459.9375" fill="#84BE84" rx="3" ry="3" style="stroke: #038048; stroke-width: 1.0;"/><text fill="#000000" font-family="sans-serif" font-size="11" lengthAdjust="spacingAndGlyphs" textLength="210" x="248" y="463.1479">«create»__init__(source: SourceText)</text><ellipse cx="239" cy="472.7422" fill="#84BE84" rx="3" ry="3" style="stroke: #038048; stroke-width: 1.0;"/><text fill="#000000" font-family="sans-serif" font-size="11" font-style="italic" lengthAdjust="spacingAndGlyphs" text-decoration="underline" textLength="105" x="248" y="475.9526">get_name(): String</text><ellipse cx="239" cy="485.5469" fill="#84BE84" rx="3" ry="3" style="stroke: #038048; stroke-width: 1.0;"/><text fill="#000000" font-family="sans-serif" font-size="11" font-style="italic" lengthAdjust="spacingAndGlyphs" textLength="95" x="248" y="488.7573">get_text(): String</text><!--MD5=[ee5943e7f8f92838b42418d985a05d92]
class source.FortranPreProcessor--><rect fill="#FEFECE" filter="url(#f1u1cmn6xk6k25)" height="79.5469" id="source.FortranPreProcessor" style="stroke: #A80036; stroke-width: 1.5;" width="164" x="463" y="555"/><ellipse cx="478" cy="573.9688" fill="#ADD1B2" rx="11" ry="11" style="stroke: #A80036; stroke-width: 1.0;"/><path d="M480.9688,579.6094 Q480.3906,579.9063 479.75,580.0469 Q479.1094,580.2031 478.4063,580.2031 Q475.9063,580.2031 474.5781,578.5625 Q473.2656,576.9063 473.2656,573.7813 Q473.2656,570.6563 474.5781,569 Q475.9063,567.3438 478.4063,567.3438 Q479.1094,567.3438 479.75,567.5 Q480.4063,567.6563 480.9688,567.9531 L480.9688,570.6719 Q480.3438,570.0938 479.75,569.8281 Q479.1563,569.5469 478.5313,569.5469 Q477.1875,569.5469 476.5,570.625 Q475.8125,571.6875 475.8125,573.7813 Q475.8125,575.875 476.5,576.9531 Q477.1875,578.0156 478.5313,578.0156 Q479.1563,578.0156 479.75,577.75 Q480.3438,577.4688 480.9688,576.8906 L480.9688,579.6094 Z "/><text fill="#000000" font-family="sans-serif" font-size="12" font-style="italic" lengthAdjust="spacingAndGlyphs" textLength="136" x="490" y="571.1387">«concrete-decorator»</text><text fill="#000000" font-family="sans-serif" font-size="12" lengthAdjust="spacingAndGlyphs" textLength="130" x="493" y="585.1074">FortranPreProcessor</text><line style="stroke: #A80036; stroke-width: 1.5;" x1="464" x2="626" y1="592.9375" y2="592.9375"/><line style="stroke: #A80036; stroke-width: 1.5;" x1="464" x2="626" y1="600.9375" y2="600.9375"/><ellipse cx="474" cy="611.9375" fill="#84BE84" rx="3" ry="3" style="stroke: #038048; stroke-width: 1.0;"/><text fill="#000000" font-family="sans-serif" font-size="11" lengthAdjust="spacingAndGlyphs" text-decoration="underline" textLength="106" x="483" y="615.1479">get_name(): String</text><ellipse cx="474" cy="624.7422" fill="#84BE84" rx="3" ry="3" style="stroke: #038048; stroke-width: 1.0;"/><text fill="#000000" font-family="sans-serif" font-size="11" lengthAdjust="spacingAndGlyphs" textLength="95" x="483" y="627.9526">get_text(): String</text><!--MD5=[c8748ceee2f3022f09ce3416be96a12e]
class source.pFUnitProcessor--><rect fill="#FEFECE" filter="url(#f1u1cmn6xk6k25)" height="79.5469" id="source.pFUnitProcessor" style="stroke: #A80036; stroke-width: 1.5;" width="164" x="662" y="555"/><ellipse cx="677" cy="573.9688" fill="#ADD1B2" rx="11" ry="11" style="stroke: #A80036; stroke-width: 1.0;"/><path d="M679.9688,579.6094 Q679.3906,579.9063 678.75,580.0469 Q678.1094,580.2031 677.4063,580.2031 Q674.9063,580.2031 673.5781,578.5625 Q672.2656,576.9063 672.2656,573.7813 Q672.2656,570.6563 673.5781,569 Q674.9063,567.3438 677.4063,567.3438 Q678.1094,567.3438 678.75,567.5 Q679.4063,567.6563 679.9688,567.9531 L679.9688,570.6719 Q679.3438,570.0938 678.75,569.8281 Q678.1563,569.5469 677.5313,569.5469 Q676.1875,569.5469 675.5,570.625 Q674.8125,571.6875 674.8125,573.7813 Q674.8125,575.875 675.5,576.9531 Q676.1875,578.0156 677.5313,578.0156 Q678.1563,578.0156 678.75,577.75 Q679.3438,577.4688 679.9688,576.8906 L679.9688,579.6094 Z "/><text fill="#000000" font-family="sans-serif" font-size="12" font-style="italic" lengthAdjust="spacingAndGlyphs" textLength="136" x="689" y="571.1387">«concrete-decorator»</text><text fill="#000000" font-family="sans-serif" font-size="12" lengthAdjust="spacingAndGlyphs" textLength="103" x="705.5" y="585.1074">pFUnitProcessor</text><line style="stroke: #A80036; stroke-width: 1.5;" x1="663" x2="825" y1="592.9375" y2="592.9375"/><line style="stroke: #A80036; stroke-width: 1.5;" x1="663" x2="825" y1="600.9375" y2="600.9375"/><ellipse cx="673" cy="611.9375" fill="#84BE84" rx="3" ry="3" style="stroke: #038048; stroke-width: 1.0;"/><text fill="#000000" font-family="sans-serif" font-size="11" lengthAdjust="spacingAndGlyphs" text-decoration="underline" textLength="106" x="682" y="615.1479">get_name(): String</text><ellipse cx="673" cy="624.7422" fill="#84BE84" rx="3" ry="3" style="stroke: #038048; stroke-width: 1.0;"/><text fill="#000000" font-family="sans-serif" font-size="11" lengthAdjust="spacingAndGlyphs" textLength="95" x="682" y="627.9526">get_text(): String</text><!--MD5=[a48237daeb7739cb0a9da3aa3e7f6943]
class source.SourceText--><rect fill="#FEFECE" filter="url(#f1u1cmn6xk6k25)" height="66.7422" id="source.SourceText" style="stroke: #A80036; stroke-width: 1.5;" width="121" x="107.5" y="561.5"/><ellipse cx="126.1" cy="580.4688" fill="#A9DCDF" rx="11" ry="11" style="stroke: #A80036; stroke-width: 1.0;"/><path d="M126.2094,575.8125 L125.0531,580.8906 L127.3813,580.8906 L126.2094,575.8125 Z M124.725,573.5781 L127.7094,573.5781 L131.0688,585.9688 L128.6156,585.9688 L127.85,582.9063 L124.5688,582.9063 L123.8188,585.9688 L121.3813,585.9688 L124.725,573.5781 Z "/><text fill="#000000" font-family="sans-serif" font-size="12" font-style="italic" lengthAdjust="spacingAndGlyphs" textLength="85" x="138.9" y="577.6387">«component»</text><text fill="#000000" font-family="sans-serif" font-size="12" font-style="italic" lengthAdjust="spacingAndGlyphs" textLength="71" x="145.9" y="591.6074">SourceText</text><line style="stroke: #A80036; stroke-width: 1.5;" x1="108.5" x2="227.5" y1="599.4375" y2="599.4375"/><line style="stroke: #A80036; stroke-width: 1.5;" x1="108.5" x2="227.5" y1="607.4375" y2="607.4375"/><ellipse cx="118.5" cy="618.4375" fill="#84BE84" rx="3" ry="3" style="stroke: #038048; stroke-width: 1.0;"/><text fill="#000000" font-family="sans-serif" font-size="11" font-style="italic" lengthAdjust="spacingAndGlyphs" textLength="95" x="127.5" y="621.6479">get_text(): String</text><!--MD5=[4d45e0c472518d12d9dee94be8e1e084]
class source.FileReader--><rect fill="#FEFECE" filter="url(#f1u1cmn6xk6k25)" height="79.5469" id="source.FileReader" style="stroke: #A80036; stroke-width: 1.5;" width="260" x="38" y="695"/><ellipse cx="93.25" cy="713.9688" fill="#ADD1B2" rx="11" ry="11" style="stroke: #A80036; stroke-width: 1.0;"/><path d="M96.2188,719.6094 Q95.6406,719.9063 95,720.0469 Q94.3594,720.2031 93.6563,720.2031 Q91.1563,720.2031 89.8281,718.5625 Q88.5156,716.9063 88.5156,713.7813 Q88.5156,710.6563 89.8281,709 Q91.1563,707.3438 93.6563,707.3438 Q94.3594,707.3438 95,707.5 Q95.6563,707.6563 96.2188,707.9531 L96.2188,710.6719 Q95.5938,710.0938 95,709.8281 Q94.4063,709.5469 93.7813,709.5469 Q92.4375,709.5469 91.75,710.625 Q91.0625,711.6875 91.0625,713.7813 Q91.0625,715.875 91.75,716.9531 Q92.4375,718.0156 93.7813,718.0156 Q94.4063,718.0156 95,717.75 Q95.5938,717.4688 96.2188,716.8906 L96.2188,719.6094 Z "/><text fill="#000000" font-family="sans-serif" font-size="12" font-style="italic" lengthAdjust="spacingAndGlyphs" textLength="145" x="111.75" y="711.1387">«concrete-component»</text><text fill="#000000" font-family="sans-serif" font-size="12" lengthAdjust="spacingAndGlyphs" textLength="66" x="151.25" y="725.1074">FileReader</text><line style="stroke: #A80036; stroke-width: 1.5;" x1="39" x2="297" y1="732.9375" y2="732.9375"/><line style="stroke: #A80036; stroke-width: 1.5;" x1="39" x2="297" y1="740.9375" y2="740.9375"/><ellipse cx="49" cy="751.9375" fill="#84BE84" rx="3" ry="3" style="stroke: #038048; stroke-width: 1.0;"/><text fill="#000000" font-family="sans-serif" font-size="11" lengthAdjust="spacingAndGlyphs" textLength="234" x="58" y="755.1479">«create»__init__(source_file: Path|TextIO)</text><ellipse cx="49" cy="764.7422" fill="#84BE84" rx="3" ry="3" style="stroke: #038048; stroke-width: 1.0;"/><text fill="#000000" font-family="sans-serif" font-size="11" lengthAdjust="spacingAndGlyphs" textLength="95" x="58" y="767.9526">get_text(): String</text><!--MD5=[7041b1728af2dd34d50d7b07eadf7294]
class source.StringReader--><rect fill="#FEFECE" filter="url(#f1u1cmn6xk6k25)" height="79.5469" id="source.StringReader" style="stroke: #A80036; stroke-width: 1.5;" width="245" x="333.5" y="695"/><ellipse cx="381.25" cy="713.9688" fill="#ADD1B2" rx="11" ry="11" style="stroke: #A80036; stroke-width: 1.0;"/><path d="M384.2188,719.6094 Q383.6406,719.9063 383,720.0469 Q382.3594,720.2031 381.6563,720.2031 Q379.1563,720.2031 377.8281,718.5625 Q376.5156,716.9063 376.5156,713.7813 Q376.5156,710.6563 377.8281,709 Q379.1563,707.3438 381.6563,707.3438 Q382.3594,707.3438 383,707.5 Q383.6563,707.6563 384.2188,707.9531 L384.2188,710.6719 Q383.5938,710.0938 383,709.8281 Q382.4063,709.5469 381.7813,709.5469 Q380.4375,709.5469 379.75,710.625 Q379.0625,711.6875 379.0625,713.7813 Q379.0625,715.875 379.75,716.9531 Q380.4375,718.0156 381.7813,718.0156 Q382.4063,718.0156 383,717.75 Q383.5938,717.4688 384.2188,716.8906 L384.2188,719.6094 Z "/><text fill="#000000" font-family="sans-serif" font-size="12" font-style="italic" lengthAdjust="spacingAndGlyphs" textLength="145" x="399.75" y="711.1387">«concrete-component»</text><text fill="#000000" font-family="sans-serif" font-size="12" lengthAdjust="spacingAndGlyphs" textLength="82" x="431.25" y="725.1074">StringReader</text><line style="stroke: #A80036; stroke-width: 1.5;" x1="334.5" x2="577.5" y1="732.9375" y2="732.9375"/><line style="stroke: #A80036; stroke-width: 1.5;" x1="334.5" x2="577.5" y1="740.9375" y2="740.9375"/><ellipse cx="344.5" cy="751.9375" fill="#84BE84" rx="3" ry="3" style="stroke: #038048; stroke-width: 1.0;"/><text fill="#000000" font-family="sans-serif" font-size="11" lengthAdjust="spacingAndGlyphs" textLength="219" x="353.5" y="755.1479">«create»__init__(source_string: String)</text><ellipse cx="344.5" cy="764.7422" fill="#84BE84" rx="3" ry="3" style="stroke: #038048; stroke-width: 1.0;"/><text fill="#000000" font-family="sans-serif" font-size="11" lengthAdjust="spacingAndGlyphs" textLength="95" x="353.5" y="767.9526">get_text(): String</text><!--MD5=[4a4c6a4078f4fdd849854bee6ecb8442]
class source.SourceTree--><rect fill="#FEFECE" filter="url(#f1u1cmn6xk6k25)" height="99.2188" id="source.SourceTree" style="stroke: #A80036; stroke-width: 1.5;" width="226" x="532" y="59"/><ellipse cx="604.75" cy="75" fill="#A9DCDF" rx="11" ry="11" style="stroke: #A80036; stroke-width: 1.0;"/><path d="M604.8594,70.3438 L603.7031,75.4219 L606.0313,75.4219 L604.8594,70.3438 Z M603.375,68.1094 L606.3594,68.1094 L609.7188,80.5 L607.2656,80.5 L606.5,77.4375 L603.2188,77.4375 L602.4688,80.5 L600.0313,80.5 L603.375,68.1094 Z "/><text fill="#000000" font-family="sans-serif" font-size="12" font-style="italic" lengthAdjust="spacingAndGlyphs" textLength="72" x="625.25" y="79.1543">SourceTree</text><line style="stroke: #A80036; stroke-width: 1.5;" x1="533" x2="757" y1="91" y2="91"/><line style="stroke: #A80036; stroke-width: 1.5;" x1="533" x2="757" y1="99" y2="99"/><ellipse cx="543" cy="110" fill="#84BE84" rx="3" ry="3" style="stroke: #038048; stroke-width: 1.0;"/><text fill="#000000" font-family="sans-serif" font-size="11" lengthAdjust="spacingAndGlyphs" textLength="200" x="552" y="113.2104">«create»__init__( text: SourceText )</text><ellipse cx="543" cy="122.8047" fill="#84BE84" rx="3" ry="3" style="stroke: #038048; stroke-width: 1.0;"/><text fill="#000000" font-family="sans-serif" font-size="11" font-style="italic" lengthAdjust="spacingAndGlyphs" textLength="55" x="552" y="126.0151">get_tree()</text><ellipse cx="543" cy="135.6094" fill="#84BE84" rx="3" ry="3" style="stroke: #038048; stroke-width: 1.0;"/><text fill="#000000" font-family="sans-serif" font-size="11" font-style="italic" lengthAdjust="spacingAndGlyphs" textLength="131" x="552" y="138.8198">get_tree_error(): String</text><ellipse cx="543" cy="148.4141" fill="#84BE84" rx="3" ry="3" style="stroke: #038048; stroke-width: 1.0;"/><text fill="#000000" font-family="sans-serif" font-size="11" lengthAdjust="spacingAndGlyphs" textLength="95" x="552" y="151.6245">get_text(): String</text><!--MD5=[38552458e79284dfef2c15cdc2032277]
class source.FortranSource--><rect fill="#FEFECE" filter="url(#f1u1cmn6xk6k25)" height="124.8281" id="source.FortranSource" style="stroke: #A80036; stroke-width: 1.5;" width="697" x="75.5" y="218"/><ellipse cx="374.75" cy="234" fill="#ADD1B2" rx="11" ry="11" style="stroke: #A80036; stroke-width: 1.0;"/><path d="M377.7188,239.6406 Q377.1406,239.9375 376.5,240.0781 Q375.8594,240.2344 375.1563,240.2344 Q372.6563,240.2344 371.3281,238.5938 Q370.0156,236.9375 370.0156,233.8125 Q370.0156,230.6875 371.3281,229.0313 Q372.6563,227.375 375.1563,227.375 Q375.8594,227.375 376.5,227.5313 Q377.1563,227.6875 377.7188,227.9844 L377.7188,230.7031 Q377.0938,230.125 376.5,229.8594 Q375.9063,229.5781 375.2813,229.5781 Q373.9375,229.5781 373.25,230.6563 Q372.5625,231.7188 372.5625,233.8125 Q372.5625,235.9063 373.25,236.9844 Q373.9375,238.0469 375.2813,238.0469 Q375.9063,238.0469 376.5,237.7813 Q377.0938,237.5 377.7188,236.9219 L377.7188,239.6406 Z "/><text fill="#000000" font-family="sans-serif" font-size="12" lengthAdjust="spacingAndGlyphs" textLength="90" x="395.25" y="238.1543">FortranSource</text><line style="stroke: #A80036; stroke-width: 1.5;" x1="76.5" x2="771.5" y1="250" y2="250"/><line style="stroke: #A80036; stroke-width: 1.5;" x1="76.5" x2="771.5" y1="258" y2="258"/><ellipse cx="86.5" cy="269" fill="#84BE84" rx="3" ry="3" style="stroke: #038048; stroke-width: 1.0;"/><text fill="#000000" font-family="sans-serif" font-size="11" lengthAdjust="spacingAndGlyphs" textLength="231" x="95.5" y="272.2104">get_tree(): fparser.Fortran2003.Program</text><ellipse cx="86.5" cy="281.8047" fill="#84BE84" rx="3" ry="3" style="stroke: #038048; stroke-width: 1.0;"/><text fill="#000000" font-family="sans-serif" font-size="11" lengthAdjust="spacingAndGlyphs" textLength="132" x="95.5" y="285.0151">get_tree_error(): String</text><ellipse cx="86.5" cy="294.6094" fill="#84BE84" rx="3" ry="3" style="stroke: #038048; stroke-width: 1.0;"/><text fill="#000000" font-family="sans-serif" font-size="11" lengthAdjust="spacingAndGlyphs" textLength="483" x="95.5" y="297.8198">get_first_statement(root: fparser.Fortran2003.Block): fparser.Fortran2003.StmtBlock</text><ellipse cx="86.5" cy="307.4141" fill="#84BE84" rx="3" ry="3" style="stroke: #038048; stroke-width: 1.0;"/><text fill="#000000" font-family="sans-serif" font-size="11" lengthAdjust="spacingAndGlyphs" textLength="514" x="95.5" y="310.6245">path( path: String, root: root: fparser.Fortran2003.Block ): fparser.Fortran2003.Base«list»</text><ellipse cx="86.5" cy="320.2188" fill="#84BE84" rx="3" ry="3" style="stroke: #038048; stroke-width: 1.0;"/><text fill="#000000" font-family="sans-serif" font-size="11" lengthAdjust="spacingAndGlyphs" textLength="671" x="95.5" y="323.4292">find_all(find_node: fparser.Fortran2003.Base«type», root: fparser.Fortran2003.Base): fparser.Fortran2003.Base«list»</text><ellipse cx="86.5" cy="333.0234" fill="#84BE84" rx="3" ry="3" style="stroke: #038048; stroke-width: 1.0;"/><text fill="#000000" font-family="sans-serif" font-size="11" lengthAdjust="spacingAndGlyphs" text-decoration="underline" textLength="357" x="95.5" y="336.2339">print_tree(root: fparser.Fortran2003.Base, indent: Integer = 0)</text><!--MD5=[dd26c83f0ce8242ca2e7f197b69cfabc]
class source.CSource--><rect fill="#FFFFFF" filter="url(#f1u1cmn6xk6k25)" height="79.5469" id="source.CSource" style="stroke: #87CEFA; stroke-width: 1.5;" width="116" x="808" y="240.5"/><ellipse cx="829.3" cy="259.4688" fill="#ADD1B2" rx="11" ry="11" style="stroke: #87CEFA; stroke-width: 1.0;"/><path d="M832.2688,265.1094 Q831.6906,265.4063 831.05,265.5469 Q830.4094,265.7031 829.7063,265.7031 Q827.2063,265.7031 825.8781,264.0625 Q824.5656,262.4063 824.5656,259.2813 Q824.5656,256.1563 825.8781,254.5 Q827.2063,252.8438 829.7063,252.8438 Q830.4094,252.8438 831.05,253 Q831.7063,253.1563 832.2688,253.4531 L832.2688,256.1719 Q831.6438,255.5938 831.05,255.3281 Q830.4563,255.0469 829.8313,255.0469 Q828.4875,255.0469 827.8,256.125 Q827.1125,257.1875 827.1125,259.2813 Q827.1125,261.375 827.8,262.4531 Q828.4875,263.5156 829.8313,263.5156 Q830.4563,263.5156 831.05,263.25 Q831.6438,262.9688 832.2688,262.3906 L832.2688,265.1094 Z "/><text fill="#000000" font-family="sans-serif" font-size="12" font-style="italic" lengthAdjust="spacingAndGlyphs" textLength="74" x="842.7" y="256.6387">«unwritten»</text><text fill="#000000" font-family="sans-serif" font-size="12" lengthAdjust="spacingAndGlyphs" textLength="52" x="853.7" y="270.6074">CSource</text><line style="stroke: #87CEFA; stroke-width: 1.5;" x1="809" x2="923" y1="278.4375" y2="278.4375"/><line style="stroke: #87CEFA; stroke-width: 1.5;" x1="809" x2="923" y1="286.4375" y2="286.4375"/><ellipse cx="819" cy="297.4375" fill="#84BE84" rx="3" ry="3" style="stroke: #038048; stroke-width: 1.0;"/><text fill="#000000" font-family="sans-serif" font-size="11" lengthAdjust="spacingAndGlyphs" textLength="55" x="828" y="300.6479">get_tree()</text><ellipse cx="819" cy="310.2422" fill="#84BE84" rx="3" ry="3" style="stroke: #038048; stroke-width: 1.0;"/><text fill="#000000" font-family="sans-serif" font-size="11" lengthAdjust="spacingAndGlyphs" textLength="90" x="828" y="313.4526">get_tree_error()</text><!--MD5=[b50c453b9e347c4a3f373851e98c57cf]
class source.PlainText--><rect fill="#FEFECE" filter="url(#f1u1cmn6xk6k25)" height="86.4141" id="source.PlainText" style="stroke: #A80036; stroke-width: 1.5;" width="217" x="959.5" y="237.5"/><ellipse cx="1035.75" cy="253.5" fill="#ADD1B2" rx="11" ry="11" style="stroke: #A80036; stroke-width: 1.0;"/><path d="M1038.7188,259.1406 Q1038.1406,259.4375 1037.5,259.5781 Q1036.8594,259.7344 1036.1563,259.7344 Q1033.6563,259.7344 1032.3281,258.0938 Q1031.0156,256.4375 1031.0156,253.3125 Q1031.0156,250.1875 1032.3281,248.5313 Q1033.6563,246.875 1036.1563,246.875 Q1036.8594,246.875 1037.5,247.0313 Q1038.1563,247.1875 1038.7188,247.4844 L1038.7188,250.2031 Q1038.0938,249.625 1037.5,249.3594 Q1036.9063,249.0781 1036.2813,249.0781 Q1034.9375,249.0781 1034.25,250.1563 Q1033.5625,251.2188 1033.5625,253.3125 Q1033.5625,255.4063 1034.25,256.4844 Q1034.9375,257.5469 1036.2813,257.5469 Q1036.9063,257.5469 1037.5,257.2813 Q1038.0938,257 1038.7188,256.4219 L1038.7188,259.1406 Z "/><text fill="#000000" font-family="sans-serif" font-size="12" lengthAdjust="spacingAndGlyphs" textLength="56" x="1056.25" y="257.6543">PlainText</text><line style="stroke: #A80036; stroke-width: 1.5;" x1="960.5" x2="1175.5" y1="269.5" y2="269.5"/><line style="stroke: #A80036; stroke-width: 1.5;" x1="960.5" x2="1175.5" y1="277.5" y2="277.5"/><ellipse cx="970.5" cy="288.5" fill="#84BE84" rx="3" ry="3" style="stroke: #038048; stroke-width: 1.0;"/><text fill="#000000" font-family="sans-serif" font-size="11" lengthAdjust="spacingAndGlyphs" text-decoration="underline" textLength="106" x="979.5" y="291.7104">get_name(): String</text><ellipse cx="970.5" cy="301.3047" fill="#84BE84" rx="3" ry="3" style="stroke: #038048; stroke-width: 1.0;"/><text fill="#000000" font-family="sans-serif" font-size="11" lengthAdjust="spacingAndGlyphs" textLength="167" x="979.5" y="304.5151">get_tree(): String«generator»</text><ellipse cx="970.5" cy="314.1094" fill="#84BE84" rx="3" ry="3" style="stroke: #038048; stroke-width: 1.0;"/><text fill="#000000" font-family="sans-serif" font-size="11" lengthAdjust="spacingAndGlyphs" textLength="191" x="979.5" y="317.3198">get_tree_error(): String«optional»</text><!--MD5=[2e3eae229a3437ff6ac57ed1631cd621]
reverse link source.TextProcessor to source.CPreProcessor--><path d="M346,515.2 C346,528.73 346,542.58 346,554.82 " fill="none" id="source.TextProcessor&lt;-source.CPreProcessor" style="stroke: #A80036; stroke-width: 1.0;"/><polygon fill="none" points="339,515.17,346,495.17,353,515.17,339,515.17" style="stroke: #A80036; stroke-width: 1.0;"/><!--MD5=[b08e4cee35087d1a1895ff0d52fb90ec]
reverse link source.TextProcessor to source.FortranPreProcessor--><path d="M424.64,506.9 C446.82,522.96 470.46,540.06 490.86,554.82 " fill="none" id="source.TextProcessor&lt;-source.FortranPreProcessor" style="stroke: #A80036; stroke-width: 1.0;"/><polygon fill="none" points="420.52,512.56,408.42,495.17,428.73,501.22,420.52,512.56" style="stroke: #A80036; stroke-width: 1.0;"/><!--MD5=[1ba8271a72a0e101e579d5c15b3f91d4]
reverse link source.TextProcessor to source.pFUnitProcessor--><path d="M483.37,497.03 C534.29,514.78 592.42,535.42 645,555 C650.54,557.06 656.24,559.22 661.98,561.41 " fill="none" id="source.TextProcessor&lt;-source.pFUnitProcessor" style="stroke: #A80036; stroke-width: 1.0;"/><polygon fill="none" points="480.83,503.56,464.24,490.38,485.43,490.33,480.83,503.56" style="stroke: #A80036; stroke-width: 1.0;"/><!--MD5=[c6b330feec2c92f069adcad9e0b7bfbf]
reverse link source.TextProcessor to source.SourceText--><path d="M267.67,503.36 C242.81,522.81 216.85,544.21 197.51,561.33 " fill="none" id="source.TextProcessor&lt;-source.SourceText" style="stroke: #A80036; stroke-width: 1.0;"/><polygon fill="#A80036" points="278.24,495.17,271.0476,495.6886,268.76,502.5272,275.9524,502.0086,278.24,495.17" style="stroke: #A80036; stroke-width: 1.0;"/><!--MD5=[d56d76d205553e823121de4eb1108b38]
reverse link source.SourceText to source.TextProcessor--><path d="M236.19,549.04 C258.57,531.89 282.74,512.34 302.8,495.17 " fill="none" id="source.SourceText&lt;-source.TextProcessor" style="stroke: #A80036; stroke-width: 1.0;"/><polygon fill="none" points="240.09,554.87,219.91,561.33,231.66,543.69,240.09,554.87" style="stroke: #A80036; stroke-width: 1.0;"/><!--MD5=[b102589a59faaf7b2e74d77b46ece211]
reverse link source.SourceText to source.FileReader--><path d="M168,648.9 C168,664.2 168,680.61 168,694.9 " fill="none" id="source.SourceText&lt;-source.FileReader" style="stroke: #A80036; stroke-width: 1.0;"/><polygon fill="none" points="161,648.7,168,628.7,175,648.7,161,648.7" style="stroke: #A80036; stroke-width: 1.0;"/><!--MD5=[453a5e9055afc3c7504b93840bdc388c]
reverse link source.SourceText to source.StringReader--><path d="M246.72,634.87 C246.81,634.91 246.91,634.96 247,635 C288.29,654.97 334.36,676.84 372.71,694.92 " fill="none" id="source.SourceText&lt;-source.StringReader" style="stroke: #A80036; stroke-width: 1.0;"/><polygon fill="none" points="243.68,641.17,228.77,626.12,249.81,628.58,243.68,641.17" style="stroke: #A80036; stroke-width: 1.0;"/><!--MD5=[2b8e1a8bfde4f8cf791ce99e700e7648]
reverse link source.SourceTree to source.SourceText--><path d="M518.52,114.56 C363.83,123.71 115.41,149.01 58,218 C-28.35,321.78 85.34,490.68 140.78,561.32 " fill="none" id="source.SourceTree&lt;-source.SourceText" style="stroke: #A80036; stroke-width: 1.0;"/><polygon fill="#A80036" points="531.8,113.8,525.5811,110.1496,519.8196,114.4861,526.0385,118.1365,531.8,113.8" style="stroke: #A80036; stroke-width: 1.0;"/><!--MD5=[e2a1a88d1cbdade3a7da8b3104de8d46]
reverse link source.SourceTree to source.FortranSource--><path d="M565.68,170.51 C545.73,185.86 524.3,202.35 504.3,217.73 " fill="none" id="source.SourceTree&lt;-source.FortranSource" style="stroke: #A80036; stroke-width: 1.0;"/><polygon fill="none" points="561.55,164.86,581.67,158.22,570.09,175.96,561.55,164.86" style="stroke: #A80036; stroke-width: 1.0;"/><!--MD5=[7a50edc2d9cd4ba6865785bf754955eb]
reverse link source.SourceTree to source.CSource--><path d="M727.25,170.2 C747.86,185.64 769.83,202.31 790,218 C799.11,225.09 808.74,232.75 817.97,240.18 " fill="none" id="source.SourceTree&lt;-source.CSource" style="stroke: #A80036; stroke-width: 1.0;"/><polygon fill="none" points="722.92,175.7,711.08,158.13,731.3,164.49,722.92,175.7" style="stroke: #A80036; stroke-width: 1.0;"/><!--MD5=[6db821064e68c9bb7463e6de730ec05a]
reverse link source.SourceTree to source.PlainText--><path d="M777.28,154.5 C829.12,173 888.8,195.37 942,218 C956,223.95 970.67,230.67 984.86,237.41 " fill="none" id="source.SourceTree&lt;-source.PlainText" style="stroke: #A80036; stroke-width: 1.0;"/><polygon fill="none" points="774.71,161.02,758.19,147.74,779.38,147.82,774.71,161.02" style="stroke: #A80036; stroke-width: 1.0;"/><!--MD5=[253f4793d3a9c934046ecf7a8a0485b0]
@startuml
skinparam class {
    BackgroundColor<<unwritten>> AlliceBlue
    BorderColor<<unwritten>> LightSkyBlue
}


class source.CPreProcessor <<concrete-decorator>> {
    +{static}get_name(): String
    +get_text(): String
}
source.TextProcessor <|- - source.CPreProcessor


class source.FortranPreProcessor <<concrete-decorator>> {
    +{static}get_name(): String
    +get_text(): String
}
source.TextProcessor <|- - source.FortranPreProcessor


class source.pFUnitProcessor <<concrete-decorator>> {
    +{static}get_name(): String
    +get_text(): String
}
source.TextProcessor <|- - source.pFUnitProcessor


abstract class source.TextProcessor <<decorator>> {
    +<<create>>__init__(source: SourceText)
    +{abstract}{static}get_name(): String
    +{abstract}get_text(): String
}
source.TextProcessor *- - source.SourceText


class source.FileReader <<concrete-component>> {
    +<<create>>__init__(source_file: Path|TextIO)
    +get_text(): String
}
source.SourceText <|- - source.FileReader


class source.StringReader <<concrete-component>> {
    +<<create>>__init__(source_string: String)
    +get_text(): String
}
source.SourceText <|- - source.StringReader


abstract class source.SourceText <<component>> {
    +{abstract}get_text(): String
}
source.SourceText <|- - source.TextProcessor


abstract class source.SourceTree {
    +<<create>>__init__( text: SourceText )
    +{abstract}get_tree()
    +{abstract}get_tree_error(): String
    +get_text(): String
    }
source.SourceTree *- - - - source.SourceText


class source.FortranSource {
    +get_tree(): fparser.Fortran2003.Program
    +get_tree_error(): String
    +get_first_statement(root: fparser.Fortran2003.Block): fparser.Fortran2003.StmtBlock
    +path( path: String, root: root: fparser.Fortran2003.Block ): fparser.Fortran2003.Base<<list>>
    +find_all(find_node: fparser.Fortran2003.Base<<type>>, root: fparser.Fortran2003.Base): fparser.Fortran2003.Base<<list>>
    +{static}print_tree(root: fparser.Fortran2003.Base, indent: Integer = 0)
    }
source.SourceTree <|- - source.FortranSource


class source.CSource <<unwritten>> {
    +get_tree()
    +get_tree_error()
    }
source.SourceTree <|- - source.CSource


class source.PlainText {
    +{static}get_name(): String
    +get_tree(): String<<generator>>
    +get_tree_error(): String<<optional>>
}
source.SourceTree <|- - source.PlainText

@enduml

PlantUML version 1.2020.02(Sun Mar 01 10:22:07 UTC 2020)
(GPL source distribution)
Java Runtime: OpenJDK Runtime Environment
JVM: OpenJDK 64-Bit Server VM
Java Version: 11.0.25+9
Operating System: Linux
Default Encoding: UTF-8
Language: en
Country: null
--></g></svg>