<?xml version="1.0" encoding="UTF-8" standalone="no"?><svg xmlns="http://www.w3.org/2000/svg" xmlns:xlink="http://www.w3.org/1999/xlink" contentScriptType="application/ecmascript" contentStyleType="text/css" height="417px" preserveAspectRatio="none" style="width:667px;height:417px;" version="1.1" viewBox="0 0 667 417" width="667px" zoomAndPan="magnify"><defs><filter height="300%" id="f95ld292jj84z" width="300%" x="-1" y="-1"><feGaussianBlur result="blurOut" stdDeviation="2.0"/><feColorMatrix in="blurOut" result="blurOut2" type="matrix" values="0 0 0 0 0 0 0 0 0 0 0 0 0 0 0 0 0 0 .4 0"/><feOffset dx="4.0" dy="4.0" in="blurOut2" result="blurOut3"/><feBlend in="SourceGraphic" in2="blurOut3" mode="normal"/></filter></defs><g><!--MD5=[7e786e6b377d3eb3662c7fef01f13bae]
cluster rule--><polygon fill="#FFFFFF" filter="url(#f95ld292jj84z)" points="176.5,251.5,213.5,251.5,220.5,273.7969,267.5,273.7969,267.5,350.5,176.5,350.5,176.5,251.5" style="stroke: #000000; stroke-width: 1.5;"/><line style="stroke: #000000; stroke-width: 1.5;" x1="176.5" x2="220.5" y1="273.7969" y2="273.7969"/><text fill="#000000" font-family="sans-serif" font-size="14" font-weight="bold" lengthAdjust="spacingAndGlyphs" textLength="31" x="180.5" y="266.4951">rule</text><!--MD5=[3dc0f794205026494617b94d154324d5]
cluster style--><polygon fill="#FFFFFF" filter="url(#f95ld292jj84z)" points="22,24.5,66,24.5,73,46.7969,645,46.7969,645,227.5,22,227.5,22,24.5" style="stroke: #000000; stroke-width: 1.5;"/><line style="stroke: #000000; stroke-width: 1.5;" x1="22" x2="73" y1="46.7969" y2="46.7969"/><text fill="#000000" font-family="sans-serif" font-size="14" font-weight="bold" lengthAdjust="spacingAndGlyphs" textLength="38" x="26" y="39.4951">style</text><!--MD5=[de21ecd655da5a1c939f30432b3a690f]
class rule.Rule--><rect fill="#FEFECE" filter="url(#f95ld292jj84z)" height="48" id="rule.Rule" style="stroke: #A80036; stroke-width: 1.5;" width="59" x="192.5" y="286.5"/><ellipse cx="207.5" cy="302.5" fill="#ADD1B2" rx="11" ry="11" style="stroke: #A80036; stroke-width: 1.0;"/><path d="M210.4688,308.1406 Q209.8906,308.4375 209.25,308.5781 Q208.6094,308.7344 207.9063,308.7344 Q205.4063,308.7344 204.0781,307.0938 Q202.7656,305.4375 202.7656,302.3125 Q202.7656,299.1875 204.0781,297.5313 Q205.4063,295.875 207.9063,295.875 Q208.6094,295.875 209.25,296.0313 Q209.9063,296.1875 210.4688,296.4844 L210.4688,299.2031 Q209.8438,298.625 209.25,298.3594 Q208.6563,298.0781 208.0313,298.0781 Q206.6875,298.0781 206,299.1563 Q205.3125,300.2188 205.3125,302.3125 Q205.3125,304.4063 206,305.4844 Q206.6875,306.5469 208.0313,306.5469 Q208.6563,306.5469 209.25,306.2813 Q209.8438,306 210.4688,305.4219 L210.4688,308.1406 Z "/><text fill="#000000" font-family="sans-serif" font-size="12" lengthAdjust="spacingAndGlyphs" textLength="27" x="221.5" y="306.6543">Rule</text><line style="stroke: #A80036; stroke-width: 1.5;" x1="193.5" x2="250.5" y1="318.5" y2="318.5"/><line style="stroke: #A80036; stroke-width: 1.5;" x1="193.5" x2="250.5" y1="326.5" y2="326.5"/><!--MD5=[5357f4fece81e7f4ebeaf249f8d55abe]
class style.Style--><rect fill="#FEFECE" filter="url(#f95ld292jj84z)" height="112.0234" id="style.Style" style="stroke: #A80036; stroke-width: 1.5;" width="328" x="58" y="79.5"/><ellipse cx="202.25" cy="95.5" fill="#A9DCDF" rx="11" ry="11" style="stroke: #A80036; stroke-width: 1.0;"/><path d="M202.3594,90.8438 L201.2031,95.9219 L203.5313,95.9219 L202.3594,90.8438 Z M200.875,88.6094 L203.8594,88.6094 L207.2188,101 L204.7656,101 L204,97.9375 L200.7188,97.9375 L199.9688,101 L197.5313,101 L200.875,88.6094 Z "/><text fill="#000000" font-family="sans-serif" font-size="12" font-style="italic" lengthAdjust="spacingAndGlyphs" textLength="31" x="222.75" y="99.6543">Style</text><line style="stroke: #A80036; stroke-width: 1.5;" x1="59" x2="385" y1="111.5" y2="111.5"/><line style="stroke: #A80036; stroke-width: 1.5;" x1="59" x2="385" y1="119.5" y2="119.5"/><ellipse cx="69" cy="130.5" fill="#84BE84" rx="3" ry="3" style="stroke: #038048; stroke-width: 1.0;"/><text fill="#000000" font-family="sans-serif" font-size="11" lengthAdjust="spacingAndGlyphs" textLength="235" x="78" y="133.7104">«create»__init__( rules: Rule«collection» )</text><ellipse cx="69" cy="143.3047" fill="#84BE84" rx="3" ry="3" style="stroke: #038048; stroke-width: 1.0;"/><text fill="#000000" font-family="sans-serif" font-size="11" lengthAdjust="spacingAndGlyphs" textLength="144" x="78" y="146.5151">«property»name(): String</text><ellipse cx="69" cy="156.1094" fill="#84BE84" rx="3" ry="3" style="stroke: #038048; stroke-width: 1.0;"/><text fill="#000000" font-family="sans-serif" font-size="11" lengthAdjust="spacingAndGlyphs" textLength="153" x="78" y="159.3198">«setter»name(new: String)</text><ellipse cx="69" cy="168.9141" fill="#84BE84" rx="3" ry="3" style="stroke: #038048; stroke-width: 1.0;"/><text fill="#000000" font-family="sans-serif" font-size="11" lengthAdjust="spacingAndGlyphs" textLength="159" x="78" y="172.1245">list_rules(): Rule«collection»</text><ellipse cx="69" cy="181.7188" fill="#84BE84" rx="3" ry="3" style="stroke: #038048; stroke-width: 1.0;"/><text fill="#000000" font-family="sans-serif" font-size="11" lengthAdjust="spacingAndGlyphs" textLength="302" x="78" y="184.9292">check( source: SourceTree ): issue.Issue«collection»</text><polygon fill="none" points="379.0304,191.5234,400.2197,191.6495,395.5162,204.8358" style="stroke: #A80036; stroke-width: 1.0;"/><line style="stroke: #A80036; stroke-width: 1.0;" x1="397.8679" x2="407" y1="198.2427" y2="201.5"/><line style="stroke: #A80036; stroke-width: 1.0;" x1="222" x2="222" y1="191.5234" y2="224.84"/><!--MD5=[1d3b39bc7b8bf5a77085a6f71a0dd8a0]
class style.BespokeStyle--><rect fill="#FFFFFF" filter="url(#f95ld292jj84z)" height="92.3516" id="style.BespokeStyle" style="stroke: #87CEFA; stroke-width: 1.5;" width="163" x="466" y="89.5"/><ellipse cx="502.15" cy="108.4688" fill="#ADD1B2" rx="11" ry="11" style="stroke: #87CEFA; stroke-width: 1.0;"/><path d="M505.1188,114.1094 Q504.5406,114.4063 503.9,114.5469 Q503.2594,114.7031 502.5563,114.7031 Q500.0563,114.7031 498.7281,113.0625 Q497.4156,111.4063 497.4156,108.2813 Q497.4156,105.1563 498.7281,103.5 Q500.0563,101.8438 502.5563,101.8438 Q503.2594,101.8438 503.9,102 Q504.5563,102.1563 505.1188,102.4531 L505.1188,105.1719 Q504.4938,104.5938 503.9,104.3281 Q503.3063,104.0469 502.6813,104.0469 Q501.3375,104.0469 500.65,105.125 Q499.9625,106.1875 499.9625,108.2813 Q499.9625,110.375 500.65,111.4531 Q501.3375,112.5156 502.6813,112.5156 Q503.3063,112.5156 503.9,112.25 Q504.4938,111.9688 505.1188,111.3906 L505.1188,114.1094 Z "/><text fill="#000000" font-family="sans-serif" font-size="12" font-style="italic" lengthAdjust="spacingAndGlyphs" textLength="74" x="525.85" y="105.6387">«unwritten»</text><text fill="#000000" font-family="sans-serif" font-size="12" lengthAdjust="spacingAndGlyphs" textLength="84" x="520.85" y="119.6074">BespokeStyle</text><line style="stroke: #87CEFA; stroke-width: 1.5;" x1="467" x2="628" y1="127.4375" y2="127.4375"/><line style="stroke: #87CEFA; stroke-width: 1.5;" x1="467" x2="628" y1="135.4375" y2="135.4375"/><ellipse cx="477" cy="146.4375" fill="#84BE84" rx="3" ry="3" style="stroke: #038048; stroke-width: 1.0;"/><text fill="#000000" font-family="sans-serif" font-size="11" lengthAdjust="spacingAndGlyphs" textLength="49" x="486" y="149.6479">__init__()</text><ellipse cx="477" cy="159.2422" fill="#84BE84" rx="3" ry="3" style="stroke: #038048; stroke-width: 1.0;"/><text fill="#000000" font-family="sans-serif" font-size="11" lengthAdjust="spacingAndGlyphs" textLength="115" x="486" y="162.4526">addRule( rule: Rule )</text><ellipse cx="477" cy="172.0469" fill="#84BE84" rx="3" ry="3" style="stroke: #038048; stroke-width: 1.0;"/><text fill="#000000" font-family="sans-serif" font-size="11" lengthAdjust="spacingAndGlyphs" textLength="137" x="486" y="175.2573">removeRule( rule: Rule )</text><!--MD5=[3eb64ad74f7d41a06d1003bf42fae793]
class LFRicStyle--><rect fill="#FEFECE" filter="url(#f95ld292jj84z)" height="60.8047" id="LFRicStyle" style="stroke: #A80036; stroke-width: 1.5;" width="93" x="501" y="244"/><ellipse cx="516" cy="260" fill="#ADD1B2" rx="11" ry="11" style="stroke: #A80036; stroke-width: 1.0;"/><path d="M518.9688,265.6406 Q518.3906,265.9375 517.75,266.0781 Q517.1094,266.2344 516.4063,266.2344 Q513.9063,266.2344 512.5781,264.5938 Q511.2656,262.9375 511.2656,259.8125 Q511.2656,256.6875 512.5781,255.0313 Q513.9063,253.375 516.4063,253.375 Q517.1094,253.375 517.75,253.5313 Q518.4063,253.6875 518.9688,253.9844 L518.9688,256.7031 Q518.3438,256.125 517.75,255.8594 Q517.1563,255.5781 516.5313,255.5781 Q515.1875,255.5781 514.5,256.6563 Q513.8125,257.7188 513.8125,259.8125 Q513.8125,261.9063 514.5,262.9844 Q515.1875,264.0469 516.5313,264.0469 Q517.1563,264.0469 517.75,263.7813 Q518.3438,263.5 518.9688,262.9219 L518.9688,265.6406 Z "/><text fill="#000000" font-family="sans-serif" font-size="12" lengthAdjust="spacingAndGlyphs" textLength="61" x="530" y="264.1543">LFRicStyle</text><line style="stroke: #A80036; stroke-width: 1.5;" x1="502" x2="593" y1="276" y2="276"/><line style="stroke: #A80036; stroke-width: 1.5;" x1="502" x2="593" y1="284" y2="284"/><ellipse cx="512" cy="295" fill="#84BE84" rx="3" ry="3" style="stroke: #038048; stroke-width: 1.0;"/><text fill="#000000" font-family="sans-serif" font-size="11" lengthAdjust="spacingAndGlyphs" textLength="49" x="521" y="298.2104">__init__()</text><!--MD5=[9189ecdcb14c3f868c0229631eed04a5]
class UMStyle--><rect fill="#FFFFFF" filter="url(#f95ld292jj84z)" height="66.7422" id="UMStyle" style="stroke: #87CEFA; stroke-width: 1.5;" width="102" x="496.5" y="340"/><ellipse cx="511.5" cy="358.9688" fill="#ADD1B2" rx="11" ry="11" style="stroke: #87CEFA; stroke-width: 1.0;"/><path d="M514.4688,364.6094 Q513.8906,364.9063 513.25,365.0469 Q512.6094,365.2031 511.9063,365.2031 Q509.4063,365.2031 508.0781,363.5625 Q506.7656,361.9063 506.7656,358.7813 Q506.7656,355.6563 508.0781,354 Q509.4063,352.3438 511.9063,352.3438 Q512.6094,352.3438 513.25,352.5 Q513.9063,352.6563 514.4688,352.9531 L514.4688,355.6719 Q513.8438,355.0938 513.25,354.8281 Q512.6563,354.5469 512.0313,354.5469 Q510.6875,354.5469 510,355.625 Q509.3125,356.6875 509.3125,358.7813 Q509.3125,360.875 510,361.9531 Q510.6875,363.0156 512.0313,363.0156 Q512.6563,363.0156 513.25,362.75 Q513.8438,362.4688 514.4688,361.8906 L514.4688,364.6094 Z "/><text fill="#000000" font-family="sans-serif" font-size="12" font-style="italic" lengthAdjust="spacingAndGlyphs" textLength="74" x="523.5" y="356.1387">«unwritten»</text><text fill="#000000" font-family="sans-serif" font-size="12" lengthAdjust="spacingAndGlyphs" textLength="49" x="536" y="370.1074">UMStyle</text><line style="stroke: #87CEFA; stroke-width: 1.5;" x1="497.5" x2="597.5" y1="377.9375" y2="377.9375"/><line style="stroke: #87CEFA; stroke-width: 1.5;" x1="497.5" x2="597.5" y1="385.9375" y2="385.9375"/><ellipse cx="507.5" cy="396.9375" fill="#84BE84" rx="3" ry="3" style="stroke: #038048; stroke-width: 1.0;"/><text fill="#000000" font-family="sans-serif" font-size="11" lengthAdjust="spacingAndGlyphs" textLength="49" x="516.5" y="400.1479">__init__()</text><!--MD5=[65cb8bfe52665a267daadb2767771486]
link rule.Rule to style.Style--><path d="M222,286.23 C222,265.77 222,245.31 222,224.84 " fill="none" id="rule.Rule-&gt;style.Style" style="stroke: #A80036; stroke-width: 1.0;"/><polygon fill="#FFFFFF" points="222,211.75,218,217.75,222,223.75,226,217.75,222,211.75" style="stroke: #A80036; stroke-width: 1.0;"/><text fill="#000000" font-family="sans-serif" font-size="13" lengthAdjust="spacingAndGlyphs" textLength="7" x="214.1469" y="275.5691">*</text><!--MD5=[c693117753b3c61d61b0dcd269410cad]
reverse link style.Style to LFRicStyle--><path d="M407,201.5 C407,201.5 460.14,229.31 500.82,250.6 " fill="none" id="style.Style&lt;-LFRicStyle" style="stroke: #A80036; stroke-width: 1.0;"/><!--MD5=[5f175bcb4011dfcc7c6443c580446ebf]
reverse link style.Style to UMStyle--><path d="M407,201.5 C407,201.5 426.11,277.91 466,322.5 C474.6,332.12 485.44,340.61 496.35,347.77 " fill="none" id="style.Style&lt;-UMStyle" style="stroke: #A80036; stroke-width: 1.0;"/><!--MD5=[62b6c7d9e17f7abe83fc35c7069b225e]
reverse link style.Style to style.BespokeStyle--><path d="M407,201.5 C407,201.5 434.91,188.3 465.76,173.7 " fill="none" id="style.Style&lt;-style.BespokeStyle" style="stroke: #A80036; stroke-width: 1.0;"/><!--MD5=[47d2e955e2f39abf8950d84adde1e36a]
@startuml
skinparam class {
    BackgroundColor<<unwritten>> AlliceBlue
    BorderColor<<unwritten>> LightSkyBlue
}
skinparam groupInheritance 2

left to right direction

rule.Rule "*" -o style.Style
abstract class style.Style {
    +<<create>>__init__( rules: Rule<<collection>> )
    +<<property>>name(): String
    +<<setter>>name(new: String)
    +list_rules(): Rule<<collection>>
    +check( source: SourceTree ): issue.Issue<<collection>>
    }

class LFRicStyle {
    +__init__()
    }
style.Style <|- - LFRicStyle

class UMStyle <<unwritten>> {
    +__init__()
    }
style.Style <|- - UMStyle

class style.BespokeStyle <<unwritten>> {
    +__init__()
    +addRule( rule: Rule )
    +removeRule( rule: Rule )
    }
style.Style <|- - style.BespokeStyle

@enduml

PlantUML version 1.2020.02(Sun Mar 01 10:22:07 UTC 2020)
(GPL source distribution)
Java Runtime: OpenJDK Runtime Environment
JVM: OpenJDK 64-Bit Server VM
Java Version: 17.0.15+6
Operating System: Linux
Default Encoding: UTF-8
Language: en
Country: null
--></g></svg>