<?xml version="1.0" encoding="UTF-8" standalone="no"?><svg xmlns="http://www.w3.org/2000/svg" xmlns:xlink="http://www.w3.org/1999/xlink" contentScriptType="application/ecmascript" contentStyleType="text/css" height="636px" preserveAspectRatio="none" style="width:1470px;height:636px;" version="1.1" viewBox="0 0 1470 636" width="1470px" zoomAndPan="magnify"><defs><filter height="300%" id="ff4th6ioobx0o" width="300%" x="-1" y="-1"><feGaussianBlur result="blurOut" stdDeviation="2.0"/><feColorMatrix in="blurOut" result="blurOut2" type="matrix" values="0 0 0 0 0 0 0 0 0 0 0 0 0 0 0 0 0 0 .4 0"/><feOffset dx="4.0" dy="4.0" in="blurOut2" result="blurOut3"/><feBlend in="SourceGraphic" in2="blurOut3" mode="normal"/></filter></defs><g><!--MD5=[7e786e6b377d3eb3662c7fef01f13bae]
cluster rule--><polygon fill="#FFFFFF" filter="url(#ff4th6ioobx0o)" points="22,24,59,24,66,46.2969,1448,46.2969,1448,624,22,624,22,24" style="stroke: #000000; stroke-width: 1.5;"/><line style="stroke: #000000; stroke-width: 1.5;" x1="22" x2="66" y1="46.2969" y2="46.2969"/><text fill="#000000" font-family="sans-serif" font-size="14" font-weight="bold" lengthAdjust="spacingAndGlyphs" textLength="31" x="26" y="38.9951">rule</text><!--MD5=[de21ecd655da5a1c939f30432b3a690f]
class rule.Rule--><rect fill="#FEFECE" filter="url(#ff4th6ioobx0o)" height="60.8047" id="rule.Rule" style="stroke: #A80036; stroke-width: 1.5;" width="375" x="584.5" y="79"/><ellipse cx="754.25" cy="95" fill="#A9DCDF" rx="11" ry="11" style="stroke: #A80036; stroke-width: 1.0;"/><path d="M754.3594,90.3438 L753.2031,95.4219 L755.5313,95.4219 L754.3594,90.3438 Z M752.875,88.1094 L755.8594,88.1094 L759.2188,100.5 L756.7656,100.5 L756,97.4375 L752.7188,97.4375 L751.9688,100.5 L749.5313,100.5 L752.875,88.1094 Z "/><text fill="#000000" font-family="sans-serif" font-size="12" font-style="italic" lengthAdjust="spacingAndGlyphs" textLength="27" x="774.75" y="99.1543">Rule</text><line style="stroke: #A80036; stroke-width: 1.5;" x1="585.5" x2="958.5" y1="111" y2="111"/><line style="stroke: #A80036; stroke-width: 1.5;" x1="585.5" x2="958.5" y1="119" y2="119"/><ellipse cx="595.5" cy="130" fill="#84BE84" rx="3" ry="3" style="stroke: #038048; stroke-width: 1.0;"/><text fill="#000000" font-family="sans-serif" font-size="11" font-style="italic" lengthAdjust="spacingAndGlyphs" textLength="349" x="604.5" y="133.2104">examine(subject: source.SourceTree): issue.Issue«collection»</text><polygon fill="none" points="765.5808,139.8047,768.298,160.8194,754.6,157.9271" style="stroke: #A80036; stroke-width: 1.0;"/><line style="stroke: #A80036; stroke-width: 1.0;" x1="761.449" x2="761" y1="159.3733" y2="161.5"/><!--MD5=[52fbd87e46158e3818f777e3950097bc]
class rule.FortranCharacterset--><rect fill="#FEFECE" filter="url(#ff4th6ioobx0o)" height="60.8047" id="rule.FortranCharacterset" style="stroke: #A80036; stroke-width: 1.5;" width="389" x="38.5" y="229.5"/><ellipse cx="164.75" cy="245.5" fill="#ADD1B2" rx="11" ry="11" style="stroke: #A80036; stroke-width: 1.0;"/><path d="M167.7188,251.1406 Q167.1406,251.4375 166.5,251.5781 Q165.8594,251.7344 165.1563,251.7344 Q162.6563,251.7344 161.3281,250.0938 Q160.0156,248.4375 160.0156,245.3125 Q160.0156,242.1875 161.3281,240.5313 Q162.6563,238.875 165.1563,238.875 Q165.8594,238.875 166.5,239.0313 Q167.1563,239.1875 167.7188,239.4844 L167.7188,242.2031 Q167.0938,241.625 166.5,241.3594 Q165.9063,241.0781 165.2813,241.0781 Q163.9375,241.0781 163.25,242.1563 Q162.5625,243.2188 162.5625,245.3125 Q162.5625,247.4063 163.25,248.4844 Q163.9375,249.5469 165.2813,249.5469 Q165.9063,249.5469 166.5,249.2813 Q167.0938,249 167.7188,248.4219 L167.7188,251.1406 Z "/><text fill="#000000" font-family="sans-serif" font-size="12" lengthAdjust="spacingAndGlyphs" textLength="128" x="185.25" y="249.6543">FortranCharacterset</text><line style="stroke: #A80036; stroke-width: 1.5;" x1="39.5" x2="426.5" y1="261.5" y2="261.5"/><line style="stroke: #A80036; stroke-width: 1.5;" x1="39.5" x2="426.5" y1="269.5" y2="269.5"/><ellipse cx="49.5" cy="280.5" fill="#84BE84" rx="3" ry="3" style="stroke: #038048; stroke-width: 1.0;"/><text fill="#000000" font-family="sans-serif" font-size="11" lengthAdjust="spacingAndGlyphs" textLength="363" x="58.5" y="283.7104">examine( subject: source.SourceTree ): issue.Issue«collection»</text><!--MD5=[e27b515055fbddcad01519210c3bc240]
class rule.TrailingWhitespace--><rect fill="#FEFECE" filter="url(#ff4th6ioobx0o)" height="60.8047" id="rule.TrailingWhitespace" style="stroke: #A80036; stroke-width: 1.5;" width="389" x="462.5" y="229.5"/><ellipse cx="593.75" cy="245.5" fill="#ADD1B2" rx="11" ry="11" style="stroke: #A80036; stroke-width: 1.0;"/><path d="M596.7188,251.1406 Q596.1406,251.4375 595.5,251.5781 Q594.8594,251.7344 594.1563,251.7344 Q591.6563,251.7344 590.3281,250.0938 Q589.0156,248.4375 589.0156,245.3125 Q589.0156,242.1875 590.3281,240.5313 Q591.6563,238.875 594.1563,238.875 Q594.8594,238.875 595.5,239.0313 Q596.1563,239.1875 596.7188,239.4844 L596.7188,242.2031 Q596.0938,241.625 595.5,241.3594 Q594.9063,241.0781 594.2813,241.0781 Q592.9375,241.0781 592.25,242.1563 Q591.5625,243.2188 591.5625,245.3125 Q591.5625,247.4063 592.25,248.4844 Q592.9375,249.5469 594.2813,249.5469 Q594.9063,249.5469 595.5,249.2813 Q596.0938,249 596.7188,248.4219 L596.7188,251.1406 Z "/><text fill="#000000" font-family="sans-serif" font-size="12" lengthAdjust="spacingAndGlyphs" textLength="118" x="614.25" y="249.6543">TrailingWhitespace</text><line style="stroke: #A80036; stroke-width: 1.5;" x1="463.5" x2="850.5" y1="261.5" y2="261.5"/><line style="stroke: #A80036; stroke-width: 1.5;" x1="463.5" x2="850.5" y1="269.5" y2="269.5"/><ellipse cx="473.5" cy="280.5" fill="#84BE84" rx="3" ry="3" style="stroke: #038048; stroke-width: 1.0;"/><text fill="#000000" font-family="sans-serif" font-size="11" lengthAdjust="spacingAndGlyphs" textLength="363" x="482.5" y="283.7104">examine( subject: source.SourceTree ): issue.Issue«collection»</text><!--MD5=[00eab08ddbe672047996e623e17cf373]
class rule.FortranRule--><rect fill="#FEFECE" filter="url(#ff4th6ioobx0o)" height="73.6094" id="rule.FortranRule" style="stroke: #A80036; stroke-width: 1.5;" width="435" x="593.5" y="380"/><ellipse cx="770.25" cy="396" fill="#A9DCDF" rx="11" ry="11" style="stroke: #A80036; stroke-width: 1.0;"/><path d="M770.3594,391.3438 L769.2031,396.4219 L771.5313,396.4219 L770.3594,391.3438 Z M768.875,389.1094 L771.8594,389.1094 L775.2188,401.5 L772.7656,401.5 L772,398.4375 L768.7188,398.4375 L767.9688,401.5 L765.5313,401.5 L768.875,389.1094 Z "/><text fill="#000000" font-family="sans-serif" font-size="12" font-style="italic" lengthAdjust="spacingAndGlyphs" textLength="73" x="790.75" y="400.1543">FortranRule</text><line style="stroke: #A80036; stroke-width: 1.5;" x1="594.5" x2="1027.5" y1="412" y2="412"/><line style="stroke: #A80036; stroke-width: 1.5;" x1="594.5" x2="1027.5" y1="420" y2="420"/><ellipse cx="604.5" cy="431" fill="#84BE84" rx="3" ry="3" style="stroke: #038048; stroke-width: 1.0;"/><text fill="#000000" font-family="sans-serif" font-size="11" lengthAdjust="spacingAndGlyphs" textLength="355" x="613.5" y="434.2104">examine(subject: source.SourceTree): issue.Issue«collection»</text><ellipse cx="604.5" cy="443.8047" fill="#84BE84" rx="3" ry="3" style="stroke: #038048; stroke-width: 1.0;"/><text fill="#000000" font-family="sans-serif" font-size="11" font-style="italic" lengthAdjust="spacingAndGlyphs" textLength="409" x="613.5" y="447.0151">examine_fortran(subject: source.FortranSource): issue.Issue«collection»</text><polygon fill="none" points="799.6162,453.6094,800.3938,474.7847,787.0189,470.6478" style="stroke: #A80036; stroke-width: 1.0;"/><line style="stroke: #A80036; stroke-width: 1.0;" x1="793.7064" x2="793" y1="472.7163" y2="475"/><line style="stroke: #A80036; stroke-width: 1.0;" x1="836.554" x2="850.6" y1="380" y2="359.77"/><!--MD5=[56256ac8977a22b96cab50e5420e9933]
class rule.MissingVisibility--><rect fill="#FFFFFF" filter="url(#ff4th6ioobx0o)" height="66.7422" id="rule.MissingVisibility" style="stroke: #87CEFA; stroke-width: 1.5;" width="441" x="38.5" y="537.5"/><ellipse cx="207.25" cy="556.4688" fill="#ADD1B2" rx="11" ry="11" style="stroke: #87CEFA; stroke-width: 1.0;"/><path d="M210.2188,562.1094 Q209.6406,562.4063 209,562.5469 Q208.3594,562.7031 207.6563,562.7031 Q205.1563,562.7031 203.8281,561.0625 Q202.5156,559.4063 202.5156,556.2813 Q202.5156,553.1563 203.8281,551.5 Q205.1563,549.8438 207.6563,549.8438 Q208.3594,549.8438 209,550 Q209.6563,550.1563 210.2188,550.4531 L210.2188,553.1719 Q209.5938,552.5938 209,552.3281 Q208.4063,552.0469 207.7813,552.0469 Q206.4375,552.0469 205.75,553.125 Q205.0625,554.1875 205.0625,556.2813 Q205.0625,558.375 205.75,559.4531 Q206.4375,560.5156 207.7813,560.5156 Q208.4063,560.5156 209,560.25 Q209.5938,559.9688 210.2188,559.3906 L210.2188,562.1094 Z "/><text fill="#000000" font-family="sans-serif" font-size="12" font-style="italic" lengthAdjust="spacingAndGlyphs" textLength="74" x="238.25" y="553.6387">«unwritten»</text><text fill="#000000" font-family="sans-serif" font-size="12" lengthAdjust="spacingAndGlyphs" textLength="95" x="227.75" y="567.6074">MissingVisibility</text><line style="stroke: #87CEFA; stroke-width: 1.5;" x1="39.5" x2="478.5" y1="575.4375" y2="575.4375"/><line style="stroke: #87CEFA; stroke-width: 1.5;" x1="39.5" x2="478.5" y1="583.4375" y2="583.4375"/><ellipse cx="49.5" cy="594.4375" fill="#84BE84" rx="3" ry="3" style="stroke: #038048; stroke-width: 1.0;"/><text fill="#000000" font-family="sans-serif" font-size="11" lengthAdjust="spacingAndGlyphs" textLength="415" x="58.5" y="597.6479">examine_fortran(subject: source.FortranSource): issue.Issue«collection»</text><!--MD5=[09aed2eb1b3afa2b9e830e9a6c285214]
class rule.MissingImplicit--><rect fill="#FEFECE" filter="url(#ff4th6ioobx0o)" height="73.6094" id="rule.MissingImplicit" style="stroke: #A80036; stroke-width: 1.5;" width="441" x="514.5" y="534"/><ellipse cx="686.25" cy="550" fill="#ADD1B2" rx="11" ry="11" style="stroke: #A80036; stroke-width: 1.0;"/><path d="M689.2188,555.6406 Q688.6406,555.9375 688,556.0781 Q687.3594,556.2344 686.6563,556.2344 Q684.1563,556.2344 682.8281,554.5938 Q681.5156,552.9375 681.5156,549.8125 Q681.5156,546.6875 682.8281,545.0313 Q684.1563,543.375 686.6563,543.375 Q687.3594,543.375 688,543.5313 Q688.6563,543.6875 689.2188,543.9844 L689.2188,546.7031 Q688.5938,546.125 688,545.8594 Q687.4063,545.5781 686.7813,545.5781 Q685.4375,545.5781 684.75,546.6563 Q684.0625,547.7188 684.0625,549.8125 Q684.0625,551.9063 684.75,552.9844 Q685.4375,554.0469 686.7813,554.0469 Q687.4063,554.0469 688,553.7813 Q688.5938,553.5 689.2188,552.9219 L689.2188,555.6406 Z "/><text fill="#000000" font-family="sans-serif" font-size="12" lengthAdjust="spacingAndGlyphs" textLength="89" x="706.75" y="554.1543">MissingImplicit</text><line style="stroke: #A80036; stroke-width: 1.5;" x1="515.5" x2="954.5" y1="566" y2="566"/><line style="stroke: #A80036; stroke-width: 1.5;" x1="515.5" x2="954.5" y1="574" y2="574"/><ellipse cx="525.5" cy="585" fill="#84BE84" rx="3" ry="3" style="stroke: #038048; stroke-width: 1.0;"/><text fill="#000000" font-family="sans-serif" font-size="11" lengthAdjust="spacingAndGlyphs" textLength="292" x="534.5" y="588.2104">«create»__init__(require_everywhere: Bool = False)</text><ellipse cx="525.5" cy="597.8047" fill="#84BE84" rx="3" ry="3" style="stroke: #038048; stroke-width: 1.0;"/><text fill="#000000" font-family="sans-serif" font-size="11" lengthAdjust="spacingAndGlyphs" textLength="415" x="534.5" y="601.0151">examine_fortran(subject: source.FortranSource): issue.Issue«collection»</text><!--MD5=[aaf5f8b3ce73984193e9035bd024529c]
class rule.MissingLegalNotice--><rect fill="#FFFFFF" filter="url(#ff4th6ioobx0o)" height="66.7422" id="rule.MissingLegalNotice" style="stroke: #87CEFA; stroke-width: 1.5;" width="441" x="990.5" y="537.5"/><ellipse cx="1147.25" cy="556.4688" fill="#ADD1B2" rx="11" ry="11" style="stroke: #87CEFA; stroke-width: 1.0;"/><path d="M1150.2188,562.1094 Q1149.6406,562.4063 1149,562.5469 Q1148.3594,562.7031 1147.6563,562.7031 Q1145.1563,562.7031 1143.8281,561.0625 Q1142.5156,559.4063 1142.5156,556.2813 Q1142.5156,553.1563 1143.8281,551.5 Q1145.1563,549.8438 1147.6563,549.8438 Q1148.3594,549.8438 1149,550 Q1149.6563,550.1563 1150.2188,550.4531 L1150.2188,553.1719 Q1149.5938,552.5938 1149,552.3281 Q1148.4063,552.0469 1147.7813,552.0469 Q1146.4375,552.0469 1145.75,553.125 Q1145.0625,554.1875 1145.0625,556.2813 Q1145.0625,558.375 1145.75,559.4531 Q1146.4375,560.5156 1147.7813,560.5156 Q1148.4063,560.5156 1149,560.25 Q1149.5938,559.9688 1150.2188,559.3906 L1150.2188,562.1094 Z "/><text fill="#000000" font-family="sans-serif" font-size="12" font-style="italic" lengthAdjust="spacingAndGlyphs" textLength="74" x="1190.25" y="553.6387">«unwritten»</text><text fill="#000000" font-family="sans-serif" font-size="12" lengthAdjust="spacingAndGlyphs" textLength="119" x="1167.75" y="567.6074">MissingLegalNotice</text><line style="stroke: #87CEFA; stroke-width: 1.5;" x1="991.5" x2="1430.5" y1="575.4375" y2="575.4375"/><line style="stroke: #87CEFA; stroke-width: 1.5;" x1="991.5" x2="1430.5" y1="583.4375" y2="583.4375"/><ellipse cx="1001.5" cy="594.4375" fill="#84BE84" rx="3" ry="3" style="stroke: #038048; stroke-width: 1.0;"/><text fill="#000000" font-family="sans-serif" font-size="11" lengthAdjust="spacingAndGlyphs" textLength="415" x="1010.5" y="597.6479">examine_fortran(subject: source.FortranSource): issue.Issue«collection»</text><!--MD5=[d152c3799de07d186f2828ac8a58583d]
class rule.CRule--><rect fill="#FFFFFF" filter="url(#ff4th6ioobx0o)" height="79.5469" id="rule.CRule" style="stroke: #87CEFA; stroke-width: 1.5;" width="373" x="924.5" y="220"/><ellipse cx="1071.75" cy="238.9688" fill="#A9DCDF" rx="11" ry="11" style="stroke: #87CEFA; stroke-width: 1.0;"/><path d="M1071.8594,234.3125 L1070.7031,239.3906 L1073.0313,239.3906 L1071.8594,234.3125 Z M1070.375,232.0781 L1073.3594,232.0781 L1076.7188,244.4688 L1074.2656,244.4688 L1073.5,241.4063 L1070.2188,241.4063 L1069.4688,244.4688 L1067.0313,244.4688 L1070.375,232.0781 Z "/><text fill="#000000" font-family="sans-serif" font-size="12" font-style="italic" lengthAdjust="spacingAndGlyphs" textLength="74" x="1090.25" y="236.1387">«unwritten»</text><text fill="#000000" font-family="sans-serif" font-size="12" font-style="italic" lengthAdjust="spacingAndGlyphs" textLength="35" x="1109.75" y="250.1074">CRule</text><line style="stroke: #87CEFA; stroke-width: 1.5;" x1="925.5" x2="1296.5" y1="257.9375" y2="257.9375"/><line style="stroke: #87CEFA; stroke-width: 1.5;" x1="925.5" x2="1296.5" y1="265.9375" y2="265.9375"/><ellipse cx="935.5" cy="276.9375" fill="#84BE84" rx="3" ry="3" style="stroke: #038048; stroke-width: 1.0;"/><text fill="#000000" font-family="sans-serif" font-size="11" lengthAdjust="spacingAndGlyphs" textLength="285" x="944.5" y="280.1479">examine( subject: SourceTree ): Issue«collection»</text><ellipse cx="935.5" cy="289.7422" fill="#84BE84" rx="3" ry="3" style="stroke: #038048; stroke-width: 1.0;"/><text fill="#000000" font-family="sans-serif" font-size="11" font-style="italic" lengthAdjust="spacingAndGlyphs" textLength="347" x="944.5" y="292.9526">examine_c(subject: source.CSource): issue.Issue&lt;collection&gt;</text><!--MD5=[a8a75a67e1cd52c36f62a915ab05dd8d]
reverse link rule.Rule to rule.FortranCharacterset--><path d="M761,161.5 C761,161.5 548.25,200.79 392.85,229.48 " fill="none" id="rule.Rule&lt;-rule.FortranCharacterset" style="stroke: #A80036; stroke-width: 1.0;"/><!--MD5=[59abcb936f882af40df17927fdfd5585]
reverse link rule.Rule to rule.TrailingWhitespace--><path d="M761,161.5 C761,161.5 719.1,200.79 688.49,229.48 " fill="none" id="rule.Rule&lt;-rule.TrailingWhitespace" style="stroke: #A80036; stroke-width: 1.0;"/><!--MD5=[8150b5ee8dca8bbf5d970abfa851efdf]
reverse link rule.Rule to rule.FortranRule--><path d="M761,161.5 C761,161.5 841.07,173.1 869,220 C894.79,263.29 874.12,318.86 850.6,359.77 " fill="none" id="rule.Rule&lt;-rule.FortranRule" style="stroke: #A80036; stroke-width: 1.0;"/><!--MD5=[6bd62ae38fa8469e662bb18505f19a92]
reverse link rule.FortranRule to rule.MissingVisibility--><path d="M793,475 C793,475 596.61,509.94 442.03,537.44 " fill="none" id="rule.FortranRule&lt;-rule.MissingVisibility" style="stroke: #A80036; stroke-width: 1.0;"/><!--MD5=[1b9627575bd8877b2553081033288ba7]
reverse link rule.FortranRule to rule.MissingImplicit--><path d="M793,475 C793,475 773.48,506.97 757.09,533.81 " fill="none" id="rule.FortranRule&lt;-rule.MissingImplicit" style="stroke: #A80036; stroke-width: 1.0;"/><!--MD5=[8a3b6a410e277e824a7b34b84c2120c9]
reverse link rule.FortranRule to rule.MissingLegalNotice--><path d="M793,475 C793,475 946.73,509.94 1067.73,537.44 " fill="none" id="rule.FortranRule&lt;-rule.MissingLegalNotice" style="stroke: #A80036; stroke-width: 1.0;"/><!--MD5=[e04fec6af57afe94c36a56a86a55cf88]
reverse link rule.Rule to rule.CRule--><path d="M761,161.5 C761,161.5 873.48,192.83 970.91,219.97 " fill="none" id="rule.Rule&lt;-rule.CRule" style="stroke: #A80036; stroke-width: 1.0;"/><!--MD5=[7af33b9de4e8372451df1ada7888b088]
@startuml
skinparam class {
    BackgroundColor<<unwritten>> AlliceBlue
    BorderColor<<unwritten>> LightSkyBlue
}
skinparam groupInheritance 2

abstract class rule.Rule {
    +{abstract}examine(subject: source.SourceTree): issue.Issue<<collection>>
    }

class rule.FortranCharacterset {
    +examine( subject: source.SourceTree ): issue.Issue<<collection>>
}
rule.Rule <|- - rule.FortranCharacterset

class rule.TrailingWhitespace {
    +examine( subject: source.SourceTree ): issue.Issue<<collection>>
}
rule.Rule ^- - rule.TrailingWhitespace

abstract class rule.FortranRule {
    +examine(subject: source.SourceTree): issue.Issue<<collection>>
    +{abstract}examine_fortran(subject: source.FortranSource): issue.Issue<<collection>>
    }
rule.Rule <|- - - rule.FortranRule

class rule.MissingVisibility <<unwritten>> {
    +examine_fortran(subject: source.FortranSource): issue.Issue<<collection>>
    }
rule.FortranRule <|- - rule.MissingVisibility

class rule.MissingImplicit {
    +<<create>>__init__(require_everywhere: Bool = False)
    +examine_fortran(subject: source.FortranSource): issue.Issue<<collection>>
    }
rule.FortranRule <|- - rule.MissingImplicit

class rule.MissingLegalNotice <<unwritten>> {
    +examine_fortran(subject: source.FortranSource): issue.Issue<<collection>>
    }
rule.FortranRule <|- - rule.MissingLegalNotice

abstract class rule.CRule <<unwritten>> {
    +examine( subject: SourceTree ): Issue<<collection>>
    +{abstract}examine_c(subject: source.CSource): issue.Issue<collection>
    }
rule.Rule <|- - rule.CRule

@enduml

PlantUML version 1.2020.02(Sun Mar 01 10:22:07 UTC 2020)
(GPL source distribution)
Java Runtime: OpenJDK Runtime Environment
JVM: OpenJDK 64-Bit Server VM
Java Version: 17.0.15+6
Operating System: Linux
Default Encoding: UTF-8
Language: en
Country: null
--></g></svg>