<?xml version="1.0" encoding="UTF-8" standalone="no"?><svg xmlns="http://www.w3.org/2000/svg" xmlns:xlink="http://www.w3.org/1999/xlink" contentScriptType="application/ecmascript" contentStyleType="text/css" height="345px" preserveAspectRatio="none" style="width:1674px;height:345px;" version="1.1" viewBox="0 0 1674 345" width="1674px" zoomAndPan="magnify"><defs><filter height="300%" id="f15dia6chxxss5" width="300%" x="-1" y="-1"><feGaussianBlur result="blurOut" stdDeviation="2.0"/><feColorMatrix in="blurOut" result="blurOut2" type="matrix" values="0 0 0 0 0 0 0 0 0 0 0 0 0 0 0 0 0 0 .4 0"/><feOffset dx="4.0" dy="4.0" in="blurOut2" result="blurOut3"/><feBlend in="SourceGraphic" in2="blurOut3" mode="normal"/></filter></defs><g><!--MD5=[faad0f0e7f13faf098622c4536db09e2]
cluster source--><polygon fill="#FFFFFF" filter="url(#f15dia6chxxss5)" points="538,49.5,599,49.5,606,71.7969,1116,71.7969,1116,333,538,333,538,49.5" style="stroke: #000000; stroke-width: 1.5;"/><line style="stroke: #000000; stroke-width: 1.5;" x1="538" x2="606" y1="71.7969" y2="71.7969"/><text fill="#000000" font-family="sans-serif" font-size="14" font-weight="bold" lengthAdjust="spacingAndGlyphs" textLength="55" x="542" y="64.4951">source</text><!--MD5=[e471781225fc0f8fbd677bbc1a50d018]
cluster engine--><polygon fill="#FFFFFF" filter="url(#f15dia6chxxss5)" points="140,37,200,37,207,59.2969,514,59.2969,514,174,140,174,140,37" style="stroke: #000000; stroke-width: 1.5;"/><line style="stroke: #000000; stroke-width: 1.5;" x1="140" x2="207" y1="59.2969" y2="59.2969"/><text fill="#000000" font-family="sans-serif" font-size="14" font-weight="bold" lengthAdjust="spacingAndGlyphs" textLength="54" x="144" y="51.9951">engine</text><!--MD5=[3dc0f794205026494617b94d154324d5]
cluster style--><polygon fill="#FFFFFF" filter="url(#f15dia6chxxss5)" points="22,56,66,56,73,78.2969,116,78.2969,116,155,22,155,22,56" style="stroke: #000000; stroke-width: 1.5;"/><line style="stroke: #000000; stroke-width: 1.5;" x1="22" x2="73" y1="78.2969" y2="78.2969"/><text fill="#000000" font-family="sans-serif" font-size="14" font-weight="bold" lengthAdjust="spacingAndGlyphs" textLength="38" x="26" y="70.9951">style</text><!--MD5=[8df7a151be4199304e2abb511a5bf797]
cluster issue--><polygon fill="#FFFFFF" filter="url(#f15dia6chxxss5)" points="1140,24,1188,24,1195,46.2969,1652,46.2969,1652,187,1140,187,1140,24" style="stroke: #000000; stroke-width: 1.5;"/><line style="stroke: #000000; stroke-width: 1.5;" x1="1140" x2="1195" y1="46.2969" y2="46.2969"/><text fill="#000000" font-family="sans-serif" font-size="14" font-weight="bold" lengthAdjust="spacingAndGlyphs" textLength="42" x="1144" y="38.9951">issue</text><!--MD5=[e2162cf9b90c11c32766576443a73a13]
class source.FilePipe--><rect fill="#FEFECE" filter="url(#f15dia6chxxss5)" height="60.8047" id="source.FilePipe" style="stroke: #A80036; stroke-width: 1.5;" width="546" x="554" y="84.5"/><ellipse cx="798.75" cy="100.5" fill="#ADD1B2" rx="11" ry="11" style="stroke: #A80036; stroke-width: 1.0;"/><path d="M801.7188,106.1406 Q801.1406,106.4375 800.5,106.5781 Q799.8594,106.7344 799.1563,106.7344 Q796.6563,106.7344 795.3281,105.0938 Q794.0156,103.4375 794.0156,100.3125 Q794.0156,97.1875 795.3281,95.5313 Q796.6563,93.875 799.1563,93.875 Q799.8594,93.875 800.5,94.0313 Q801.1563,94.1875 801.7188,94.4844 L801.7188,97.2031 Q801.0938,96.625 800.5,96.3594 Q799.9063,96.0781 799.2813,96.0781 Q797.9375,96.0781 797.25,97.1563 Q796.5625,98.2188 796.5625,100.3125 Q796.5625,102.4063 797.25,103.4844 Q797.9375,104.5469 799.2813,104.5469 Q799.9063,104.5469 800.5,104.2813 Q801.0938,104 801.7188,103.4219 L801.7188,106.1406 Z "/><text fill="#000000" font-family="sans-serif" font-size="12" lengthAdjust="spacingAndGlyphs" textLength="48" x="819.25" y="104.6543">FilePipe</text><line style="stroke: #A80036; stroke-width: 1.5;" x1="555" x2="1099" y1="116.5" y2="116.5"/><line style="stroke: #A80036; stroke-width: 1.5;" x1="555" x2="1099" y1="124.5" y2="124.5"/><ellipse cx="565" cy="135.5" fill="#84BE84" rx="3" ry="3" style="stroke: #038048; stroke-width: 1.0;"/><text fill="#000000" font-family="sans-serif" font-size="11" lengthAdjust="spacingAndGlyphs" textLength="520" x="574" y="138.7104">«create»__init__(parser: SourceTree«type», preprocessors: TextProcessor«type»«vararg»)</text><!--MD5=[2f7775b8102d68a39de4beafe313e70a]
class source.SourceFactory--><rect fill="#FEFECE" filter="url(#f15dia6chxxss5)" height="86.4141" id="source.SourceFactory" style="stroke: #A80036; stroke-width: 1.5;" width="438" x="608" y="231"/><ellipse cx="777.75" cy="247" fill="#ADD1B2" rx="11" ry="11" style="stroke: #A80036; stroke-width: 1.0;"/><path d="M780.7188,252.6406 Q780.1406,252.9375 779.5,253.0781 Q778.8594,253.2344 778.1563,253.2344 Q775.6563,253.2344 774.3281,251.5938 Q773.0156,249.9375 773.0156,246.8125 Q773.0156,243.6875 774.3281,242.0313 Q775.6563,240.375 778.1563,240.375 Q778.8594,240.375 779.5,240.5313 Q780.1563,240.6875 780.7188,240.9844 L780.7188,243.7031 Q780.0938,243.125 779.5,242.8594 Q778.9063,242.5781 778.2813,242.5781 Q776.9375,242.5781 776.25,243.6563 Q775.5625,244.7188 775.5625,246.8125 Q775.5625,248.9063 776.25,249.9844 Q776.9375,251.0469 778.2813,251.0469 Q778.9063,251.0469 779.5,250.7813 Q780.0938,250.5 780.7188,249.9219 L780.7188,252.6406 Z "/><text fill="#000000" font-family="sans-serif" font-size="12" lengthAdjust="spacingAndGlyphs" textLength="90" x="798.25" y="251.1543">SourceFactory</text><line style="stroke: #A80036; stroke-width: 1.5;" x1="609" x2="1045" y1="263" y2="263"/><line style="stroke: #A80036; stroke-width: 1.5;" x1="609" x2="1045" y1="271" y2="271"/><ellipse cx="619" cy="282" fill="#84BE84" rx="3" ry="3" style="stroke: #038048; stroke-width: 1.0;"/><text fill="#000000" font-family="sans-serif" font-size="11" lengthAdjust="spacingAndGlyphs" textLength="412" x="628" y="285.2104">{class}add_extension_mapping(extension: String, pipe: source.FilePipe)</text><ellipse cx="619" cy="294.8047" fill="#84BE84" rx="3" ry="3" style="stroke: #038048; stroke-width: 1.0;"/><text fill="#000000" font-family="sans-serif" font-size="11" lengthAdjust="spacingAndGlyphs" textLength="237" x="628" y="298.0151">{class}get_extensions(): String«iterable»</text><ellipse cx="619" cy="307.6094" fill="#84BE84" rx="3" ry="3" style="stroke: #038048; stroke-width: 1.0;"/><text fill="#000000" font-family="sans-serif" font-size="11" lengthAdjust="spacingAndGlyphs" textLength="353" x="628" y="310.8198">{class}read_file(source_file: Path|TextIO): source.SourceTree</text><!--MD5=[64a77f5ff86a8d22c69a932bd67d088d]
class engine.CheckEngine--><rect fill="#FEFECE" filter="url(#f15dia6chxxss5)" height="86.4141" id="engine.CheckEngine" style="stroke: #A80036; stroke-width: 1.5;" width="342" x="156" y="72"/><ellipse cx="282.25" cy="88" fill="#ADD1B2" rx="11" ry="11" style="stroke: #A80036; stroke-width: 1.0;"/><path d="M285.2188,93.6406 Q284.6406,93.9375 284,94.0781 Q283.3594,94.2344 282.6563,94.2344 Q280.1563,94.2344 278.8281,92.5938 Q277.5156,90.9375 277.5156,87.8125 Q277.5156,84.6875 278.8281,83.0313 Q280.1563,81.375 282.6563,81.375 Q283.3594,81.375 284,81.5313 Q284.6563,81.6875 285.2188,81.9844 L285.2188,84.7031 Q284.5938,84.125 284,83.8594 Q283.4063,83.5781 282.7813,83.5781 Q281.4375,83.5781 280.75,84.6563 Q280.0625,85.7188 280.0625,87.8125 Q280.0625,89.9063 280.75,90.9844 Q281.4375,92.0469 282.7813,92.0469 Q283.4063,92.0469 284,91.7813 Q284.5938,91.5 285.2188,90.9219 L285.2188,93.6406 Z "/><text fill="#000000" font-family="sans-serif" font-size="12" lengthAdjust="spacingAndGlyphs" textLength="81" x="302.75" y="92.1543">CheckEngine</text><line style="stroke: #A80036; stroke-width: 1.5;" x1="157" x2="497" y1="104" y2="104"/><rect fill="none" height="6" style="stroke: #C82930; stroke-width: 1.0;" width="6" x="164" y="112"/><text fill="#000000" font-family="sans-serif" font-size="11" lengthAdjust="spacingAndGlyphs" textLength="137" x="176" y="118.2104">styles: Style«collection»</text><line style="stroke: #A80036; stroke-width: 1.5;" x1="157" x2="497" y1="124.8047" y2="124.8047"/><ellipse cx="167" cy="135.8047" fill="#84BE84" rx="3" ry="3" style="stroke: #038048; stroke-width: 1.0;"/><text fill="#000000" font-family="sans-serif" font-size="11" lengthAdjust="spacingAndGlyphs" textLength="190" x="176" y="139.0151">__init__( styles: Style«collection»)</text><ellipse cx="167" cy="148.6094" fill="#84BE84" rx="3" ry="3" style="stroke: #038048; stroke-width: 1.0;"/><text fill="#000000" font-family="sans-serif" font-size="11" lengthAdjust="spacingAndGlyphs" textLength="316" x="176" y="151.8198">check( filename: String «collection» ): Issue«collection»</text><!--MD5=[5357f4fece81e7f4ebeaf249f8d55abe]
class style.Style--><rect fill="#FEFECE" filter="url(#f15dia6chxxss5)" height="48" id="style.Style" style="stroke: #A80036; stroke-width: 1.5;" width="62" x="38" y="91"/><ellipse cx="53" cy="107" fill="#ADD1B2" rx="11" ry="11" style="stroke: #A80036; stroke-width: 1.0;"/><path d="M55.9688,112.6406 Q55.3906,112.9375 54.75,113.0781 Q54.1094,113.2344 53.4063,113.2344 Q50.9063,113.2344 49.5781,111.5938 Q48.2656,109.9375 48.2656,106.8125 Q48.2656,103.6875 49.5781,102.0313 Q50.9063,100.375 53.4063,100.375 Q54.1094,100.375 54.75,100.5313 Q55.4063,100.6875 55.9688,100.9844 L55.9688,103.7031 Q55.3438,103.125 54.75,102.8594 Q54.1563,102.5781 53.5313,102.5781 Q52.1875,102.5781 51.5,103.6563 Q50.8125,104.7188 50.8125,106.8125 Q50.8125,108.9063 51.5,109.9844 Q52.1875,111.0469 53.5313,111.0469 Q54.1563,111.0469 54.75,110.7813 Q55.3438,110.5 55.9688,109.9219 L55.9688,112.6406 Z "/><text fill="#000000" font-family="sans-serif" font-size="12" lengthAdjust="spacingAndGlyphs" textLength="30" x="67" y="111.1543">Style</text><line style="stroke: #A80036; stroke-width: 1.5;" x1="39" x2="99" y1="123" y2="123"/><line style="stroke: #A80036; stroke-width: 1.5;" x1="39" x2="99" y1="131" y2="131"/><!--MD5=[d8ba86ad6e3f3c337531cf51d2e2bc98]
class issue.Issue--><rect fill="#FEFECE" filter="url(#f15dia6chxxss5)" height="112.0234" id="issue.Issue" style="stroke: #A80036; stroke-width: 1.5;" width="480" x="1156" y="59"/><ellipse cx="1375.25" cy="75" fill="#ADD1B2" rx="11" ry="11" style="stroke: #A80036; stroke-width: 1.0;"/><path d="M1378.2188,80.6406 Q1377.6406,80.9375 1377,81.0781 Q1376.3594,81.2344 1375.6563,81.2344 Q1373.1563,81.2344 1371.8281,79.5938 Q1370.5156,77.9375 1370.5156,74.8125 Q1370.5156,71.6875 1371.8281,70.0313 Q1373.1563,68.375 1375.6563,68.375 Q1376.3594,68.375 1377,68.5313 Q1377.6563,68.6875 1378.2188,68.9844 L1378.2188,71.7031 Q1377.5938,71.125 1377,70.8594 Q1376.4063,70.5781 1375.7813,70.5781 Q1374.4375,70.5781 1373.75,71.6563 Q1373.0625,72.7188 1373.0625,74.8125 Q1373.0625,76.9063 1373.75,77.9844 Q1374.4375,79.0469 1375.7813,79.0469 Q1376.4063,79.0469 1377,78.7813 Q1377.5938,78.5 1378.2188,77.9219 L1378.2188,80.6406 Z "/><text fill="#000000" font-family="sans-serif" font-size="12" lengthAdjust="spacingAndGlyphs" textLength="33" x="1395.75" y="79.1543">Issue</text><line style="stroke: #A80036; stroke-width: 1.5;" x1="1157" x2="1635" y1="91" y2="91"/><rect fill="none" height="6" style="stroke: #C82930; stroke-width: 1.0;" width="6" x="1164" y="99"/><text fill="#000000" font-family="sans-serif" font-size="11" lengthAdjust="spacingAndGlyphs" textLength="105" x="1176" y="105.2104">description: String</text><rect fill="none" height="6" style="stroke: #C82930; stroke-width: 1.0;" width="6" x="1164" y="111.8047"/><text fill="#000000" font-family="sans-serif" font-size="11" lengthAdjust="spacingAndGlyphs" textLength="145" x="1176" y="118.0151">filename: Path «optional»</text><rect fill="none" height="6" style="stroke: #C82930; stroke-width: 1.0;" width="6" x="1164" y="124.6094"/><text fill="#000000" font-family="sans-serif" font-size="11" lengthAdjust="spacingAndGlyphs" textLength="131" x="1176" y="130.8198">line: Integer «optional»</text><line style="stroke: #A80036; stroke-width: 1.5;" x1="1157" x2="1635" y1="137.4141" y2="137.4141"/><ellipse cx="1167" cy="148.4141" fill="#84BE84" rx="3" ry="3" style="stroke: #038048; stroke-width: 1.0;"/><text fill="#000000" font-family="sans-serif" font-size="11" lengthAdjust="spacingAndGlyphs" textLength="454" x="1176" y="151.6245">__init__( description: String, line: Integer «optional», filename: Path «optional» )</text><ellipse cx="1167" cy="161.2188" fill="#84BE84" rx="3" ry="3" style="stroke: #038048; stroke-width: 1.0;"/><text fill="#000000" font-family="sans-serif" font-size="11" lengthAdjust="spacingAndGlyphs" textLength="90" x="1176" y="164.4292">__str__(): String</text><!--MD5=[98574cae495611f62a44fcdbe14a8b65]
link source.FilePipe to source.SourceFactory--><path d="M827,145.53 C827,165.84 827,193.43 827,217.75 " fill="none" id="source.FilePipe-&gt;source.SourceFactory" style="stroke: #A80036; stroke-width: 1.0;"/><polygon fill="#FFFFFF" points="827,230.86,831,224.86,827,218.86,823,224.86,827,230.86" style="stroke: #A80036; stroke-width: 1.0;"/><text fill="#000000" font-family="sans-serif" font-size="13" lengthAdjust="spacingAndGlyphs" textLength="7" x="819.2781" y="165.4744">*</text><!--MD5=[c0d918bb853557a56c176add2a057041]
link style.Style to engine.CheckEngine--><path d="M100.24,115 C114.23,115 128.21,115 142.2,115 " fill="none" id="style.Style-&gt;engine.CheckEngine" style="stroke: #A80036; stroke-width: 1.0;"/><polygon fill="#FFFFFF" points="155.6,115,149.6,111,143.6,115,149.6,119,155.6,115" style="stroke: #A80036; stroke-width: 1.0;"/><text fill="#000000" font-family="sans-serif" font-size="13" lengthAdjust="spacingAndGlyphs" textLength="11" x="107.8176" y="110.5337">+</text><!--MD5=[233d4805f29d14119a3078ca30d5e98c]
@startuml

class source.FilePipe {
    +<<create>>__init__(parser: SourceTree<<type>>, preprocessors: TextProcessor<<type>><<vararg>>)
}


source.FilePipe "*" - -o source.SourceFactory
class source.SourceFactory {
    +{class}add_extension_mapping(extension: String, pipe: source.FilePipe)
    +{class}get_extensions(): String<<iterable>>
    +{class}read_file(source_file: Path|TextIO): source.SourceTree
}


class engine.CheckEngine {
    -styles: Style<<collection>>
    +__init__( styles: Style<<collection>>)
    +check( filename: String <<collection>> ): Issue<<collection>>
    }
style.Style "+" -o engine.CheckEngine


class issue.Issue {
    -description: String
    -filename: Path <<optional>>
    -line: Integer <<optional>>
    +__init__( description: String, line: Integer <<optional>>, filename: Path <<optional>> )
    +__str__(): String
    }

@enduml

PlantUML version 1.2020.02(Sun Mar 01 10:22:07 UTC 2020)
(GPL source distribution)
Java Runtime: OpenJDK Runtime Environment
JVM: OpenJDK 64-Bit Server VM
Java Version: 11.0.25+9
Operating System: Linux
Default Encoding: UTF-8
Language: en
Country: null
--></g></svg>